# AST/ASF file generated using VICON BodyLanguage
# -----------------------------------------------
:version 1.10
:name VICON
:units
  mass 1.0
  length 0.45
  angle deg
:documentation
   .ast/.asf automatically generated from VICON data using
   VICON BodyBuilder and BodyLanguage model FoxedUp or BRILLIANT.MOD
:root
   order TX TY TZ RX RY RZ
   axis XYZ
   position 0 0 0  
   orientation 0 0 0 
:bonedata
  begin
     id 1 
     name lhipjoint
     direction 0.623529 -0.717805 0.309788 
     length 2.23224 
     axis 0 0 0  XYZ
  end
  begin
     id 2 
     name lfemur
     direction 0.34202 -0.939693 0  
     length 7.11402  
     axis 0 0 20  XYZ
    dof rx ry rz
    limits (-160.0 20.0)
           (-70.0 70.0)
           (-60.0 70.0)
  end
  begin
     id 3 
     name ltibia
     direction 0.34202 -0.939693 0   
     length 6.78496   
     axis 0 0 20   XYZ
    dof rx
    limits (-10.0 170.0)
  end
  begin
     id 4 
     name lfoot
     direction 0.125078 -0.343648 0.930732   
     length 1.84054   
     axis -90 7.62852e-016 20   XYZ
    dof rx rz
    limits (-45.0 90.0)
           (-70.0 20.0)
  end
  begin
     id 5 
     name ltoes
     direction 1.53565e-011 -4.21893e-011 1   
     length 0.916474   
     axis -90 7.62852e-016 20   XYZ
    dof rx
    limits (-90.0 20.0)
  end
  begin
     id 6 
     name rhipjoint
     direction -0.564688 -0.757748 0.327026   
     length 2.11457  
     axis 0 0 0  XYZ 
  end
  begin
     id 7 
     name rfemur
     direction -0.34202 -0.939693 0   
     length 7.14609   
     axis 0 0 -20   XYZ
    dof rx ry rz
    limits (-160.0 20.0)
           (-70.0 70.0)
           (-70.0 60.0)
  end
  begin
     id 8 
     name rtibia
     direction -0.34202 -0.939693 0   
     length 6.78101   
     axis 0 0 -20   XYZ
    dof rx
    limits (-10.0 170.0)
 end
 begin
     id 9 
     name rfoot
     direction -0.0992671 -0.272734 0.956955   
     length 1.96168  
     axis -90 -7.62852e-016 -20   XYZ
    dof rx rz
    limits (-45.0 90.0)
           (-20.0 70.0)
  end
  begin
     id 10 
     name rtoes
     direction -1.5356e-011 -4.21891e-011 1   
     length 0.982933   
     axis -90 -7.62852e-016 -20   XYZ
    dof rx
    limits (-90.0 20.0)
  end
  begin
     id 11 
     name lowerback
     direction -0.00596953 0.998668 0.0512524   
     length 1.87557   
     axis 0 0 0   XYZ
    dof rx ry rz
    limits (-20.0 45.0)
           (-30.0 30.0)
           (-30.0 30.0)
  end
  begin
     id 12 
     name upperback
     direction 0.00584879 0.999652 0.0257308   
     length 1.87883   
     axis 0 0 0   XYZ
    dof rx ry rz
    limits (-20.0 45.0)
           (-30.0 30.0)
           (-30.0 30.0)
  end
  begin
     id 13 
     name thorax
     direction 0.010104 0.999947 0.00178881   
     length 1.87779   
     axis 0 0 0   XYZ
    dof rx ry rz
    limits (-20.0 45.0)
           (-30.0 30.0)
           (-30.0 30.0)
  end
  begin
     id 14 
     name lowerneck
     direction 0.0120771 0.995934 -0.0892773   
     length 1.40897   
     axis 0 0 0   XYZ
    dof rx ry rz
    limits (-20.0 45.0)
           (-30.0 30.0)
           (-30.0 30.0)
  end
  begin
     id 15 
     name upperneck
     direction -0.030568 0.999465 -0.0116366   
     length 1.38661   
     axis 0 0 0   XYZ
    dof rx ry rz
    limits (-20.0 45.0)
           (-30.0 30.0)
           (-30.0 30.0)
  end
  begin
     id 16
     name head
     direction -0.0170715 0.999854 -0.00104426  
     length 1.47052  
     axis 0 0 0   XYZ
    dof rx ry rz
    limits (-20.0 45.0)
           (-30.0 30.0)
           (-30.0 30.0)
  end
  begin
     id 17 
     name lclavicle
     direction 0.977763 0.206143 0.038532  
     length 3.02424  
     axis 0 0 0   XYZ
    dof ry rz
    limits (-20.0 10.0)
           (0.0 20.0)
  end
  begin
     id 18 
     name lhumerus
     direction 1 -4.48965e-011 -2.62654e-027   
     length 4.68382   
     axis 180 -30 -90   XYZ
    dof rx ry rz
    limits (-60.0 90.0)
           (-90.0 90.0)
           (-90.0 90.0)
  end
  begin
     id 19
     name lradius
     direction 1 -4.48973e-011 -1.54954e-027   
     length 2.98124   
     axis 180 -30 -90   XYZ
    dof rx
    limits (-10.0 170.0)
  end
  begin
     id 20
     name lwrist
     direction 1 -4.48959e-011 7.20928e-028   
     length 1.49062   
     axis -5.52449e-016 90 90   XYZ
    dof ry
    limits (-180.0 0.0)
 end
  begin
     id 21 
     name lhand
     direction 1 -4.48971e-011 1.44186e-027   
     length 0.707595   
     axis -9.20027e-016 90 90   XYZ
    dof rx rz
    limits (-90.0 90.0)
           (-45.0 45.0)
  end
  begin
     id 22 
     name lfingers
     direction 1 -4.48985e-011 2.88371e-027   
     length 0.570481   
     axis -1.84005e-015 90 90   XYZ
    dof rx
    limits (0.0 90.0)
  end
  begin
     id 23
     name lthumb
     direction 0.707107 -6.34929e-011 0.707107   
     length 0.819101   
     axis -90 45 2.85299e-015   XYZ
    dof rx rz
    limits (-45.0 45.0)
           (-45.0 45.0)
  end
  begin
     id 24 
     name rclavicle
     direction -0.958661 0.284411 -0.00895327   
     length 3.11921  
     axis 0 0 0   XYZ 
    dof ry rz
    limits (-10.0 20.0)
           (-20.0 0.0)
  end
  begin
     id 25 
     name rhumerus
     direction -1 -4.48963e-011 -4.22193e-027  
     length 4.75876   
     axis 180 30 90   XYZ
    dof rx ry rz
    limits (-90.0 60.0)
           (-90.0 90.0)
           (-90.0 90.0)
  end
  begin
     id 26 
     name rradius
     direction -1 -4.48968e-011 -1.07616e-027   
     length 2.93293   
     axis 180 30 90   XYZ
    dof rx
    limits (-10.0 170.0)
  end
  begin
     id 27 
     name rwrist
     direction -1 -4.48965e-011 7.20928e-028   
     length 1.46647   
     axis -5.52449e-016 -90 -90   XYZ
    dof ry
    limits (-180.0 0.0)
  end
  begin
     id 28
     name rhand
     direction -1 -4.48971e-011 1.44186e-027   
     length 0.831748   
     axis -9.20027e-016 -90 -90   XYZ
    dof rx rz
    limits (-90.0 90.0)
           (-45.0 45.0)
  end
  begin
     id 29
     name rfingers
     direction -1 -4.48961e-011 2.88371e-027   
     length 0.670577   
     axis -1.84005e-015 -90 -90   XYZ
    dof rx
    limits (0.0 90.0)
  end
  begin
     id 30
     name rthumb
     direction -0.707107 -6.34929e-011 0.707107   
     length 0.962818   
     axis -90 -45 -2.85299e-015   XYZ
    dof rx rz
    limits (-45.0 45.0)
           (-45.0 45.0)
  end
:hierarchy
  begin
    root lhipjoint rhipjoint lowerback
    lhipjoint lfemur
    lfemur ltibia
    ltibia lfoot
    lfoot ltoes
    rhipjoint rfemur
    rfemur rtibia
    rtibia rfoot
    rfoot rtoes
    lowerback upperback
    upperback thorax
    thorax lowerneck lclavicle rclavicle
    lowerneck upperneck
    upperneck head
    lclavicle lhumerus
    lhumerus lradius
    lradius lwrist
    lwrist lhand lthumb
    lhand lfingers
    rclavicle rhumerus
    rhumerus rradius
    rradius rwrist
    rwrist rhand rthumb
    rhand rfingers
  end

#!OML:ASF E:\id_vita\Project 1\Capture day 1\Session 1\Female.ASF
:FULLY-SPECIFIED
:DEGREES
262
root 23.3362 16.7807 0.136367 -19.579 -84.5667 35.3052
lowerback -5.94429 -1.06546 -6.65128
upperback -5.88872 -1.37768 -0.414322
thorax -2.65162 -0.546981 3.25007
lowerneck 4.5939 1.5395 -2.10287
upperneck -4.08649 2.08766 3.55816
head -2.14892 0.975254 1.4269
rclavicle 6.14058e-015 2.70347e-014
rhumerus -10.2751 3.60464 -26.1391
rradius 113.93
rwrist 1.79014
rhand -33.2325 15.3341
rfingers 7.12502
rthumb -6.43866 -14.5481
lclavicle 6.14058e-015 2.70347e-014
lhumerus 19.1357 -1.75251 53.1483
lradius 96.2734
lwrist 1.90476
lhand -25.6398 29.9982
lfingers 7.12502
lthumb 0.893631 59.976
rfemur -30.0786 11.4416 10.5179
rtibia 9.36038
rfoot -2.65138 -29.8723
rtoes 0.029103
lfemur -33.7152 3.01258 -24.4757
ltibia 72.8439
lfoot -15.1531 16.3277
ltoes -0.96664
263
root 23.4014 16.7718 0.160825 -23.6862 -84.9765 38.9869
lowerback -6.0112 -0.971801 -6.64521
upperback -5.84807 -1.24852 -0.516799
thorax -2.58724 -0.487909 3.1439
lowerneck 4.44337 1.70043 -2.15196
upperneck -3.2422 2.2946 3.90886
head -1.86006 1.07667 1.53935
rclavicle 5.12958e-015 -2.18663e-015
rhumerus -11.0714 4.73653 -27.1457
rradius 113.279
rwrist 2.00163
rhand -32.8125 15.634
rfingers 7.12502
rthumb -6.03319 -14.2601
lclavicle 5.12958e-015 -2.18663e-015
lhumerus 18.3731 -2.36724 53.5156
lradius 95.5241
lwrist 1.82587
lhand -26.0036 29.4956
lfingers 7.12502
lthumb 0.542246 59.4747
rfemur -29.3157 11.5486 10.4544
rtibia 8.02459
rfoot -1.64625 -29.1918
rtoes 0.326563
lfemur -32.672 3.66323 -24.3633
ltibia 73.8852
lfoot -14.8585 16.3794
ltoes -1.123
264
root 23.476 16.7618 0.185104 -26.4407 -85.3148 41.532
lowerback -6.33744 -0.968017 -6.59794
upperback -5.76531 -1.21555 -0.52178
thorax -2.32256 -0.483421 3.10743
lowerneck 4.32215 1.81703 -2.04982
upperneck -2.51304 2.43529 3.86538
head -1.60425 1.15268 1.50124
rclavicle 5.39359e-015 -1.15295e-014
rhumerus -11.8283 5.93859 -28.1262
rradius 112.645
rwrist 2.06938
rhand -32.7164 15.9833
rfingers 7.12502
rthumb -5.94046 -13.9134
lclavicle 5.39359e-015 -1.15295e-014
lhumerus 17.5875 -2.75625 53.9612
lradius 94.8086
lwrist 1.44242
lhand -26.0811 29.2478
lfingers 7.12502
lthumb 0.467406 59.227
rfemur -28.7984 11.51 10.4505
rtibia 6.66201
rfoot 0.0350732 -28.1081
rtoes -0.0763196
lfemur -31.9712 4.16503 -24.1442
ltibia 74.8271
lfoot -14.2888 16.244
ltoes -0.818197
265
root 23.5539 16.7491 0.209658 -30.0339 -85.8055 44.9423
lowerback -6.4866 -0.901567 -6.44194
upperback -5.86703 -1.1337 -0.538773
thorax -2.35618 -0.447801 3.00501
lowerneck 4.62301 1.97515 -2.08518
upperneck -1.95661 2.62733 4.00531
head -1.48845 1.24582 1.54439
rclavicle -4.96554e-015 -2.04748e-014
rhumerus -12.861 7.41512 -29.2514
rradius 112.014
rwrist 2.14588
rhand -32.3109 15.9425
rfingers 7.12502
rthumb -5.54891 -13.9648
lclavicle -4.96554e-015 -2.04748e-014
lhumerus 16.412 -3.26221 54.399
lradius 94.1309
lwrist 0.633377
lhand -25.7457 29.086
lfingers 7.12502
lthumb 0.791344 59.0643
rfemur -28.4174 11.6275 10.492
rtibia 5.40862
rfoot 1.50107 -27.0479
rtoes -0.406012
lfemur -31.3127 4.76405 -23.8625
ltibia 75.6021
lfoot -13.6226 15.9874
ltoes -0.698871
266
root 23.6298 16.7375 0.236226 -35.6483 -86.2197 50.3667
lowerback -6.52943 -0.934155 -6.29625
upperback -5.97862 -1.19248 -0.555325
thorax -2.44518 -0.480721 2.90403
lowerneck 4.66505 2.22698 -2.43261
upperneck -1.30339 2.9311 4.41849
head -1.31366 1.39489 1.72936
rclavicle 1.87914e-016 9.34288e-015
rhumerus -13.4916 8.99014 -30.6822
rradius 111.092
rwrist 2.31991
rhand -31.7535 15.9796
rfingers 7.12502
rthumb -5.01075 -13.9411
lclavicle 1.87914e-016 9.34288e-015
lhumerus 14.9537 -3.51904 54.8603
lradius 93.4794
lwrist -0.168534
lhand -25.5991 28.7258
lfingers 7.12502
lthumb 0.932954 58.7035
rfemur -28.1672 11.7514 10.4321
rtibia 4.44124
rfoot 2.61161 -26.1648
rtoes -0.733038
lfemur -30.5457 5.26507 -23.671
ltibia 76.1478
lfoot -13.0326 15.5023
ltoes 0.328944
267
root 23.7032 16.7247 0.258477 -42.0287 -86.3693 56.2718
lowerback -6.58233 -1.14142 -6.51819
upperback -5.6825 -1.42649 -0.404849
thorax -2.07627 -0.599572 3.1685
lowerneck 3.88381 2.49605 -2.78516
upperneck -0.467509 3.25978 4.49582
head -0.934199 1.57402 1.81484
rclavicle -1.50059e-014 5.36719e-015
rhumerus -13.4469 10.2901 -32.0682
rradius 109.902
rwrist 2.65824
rhand -31.2375 16.1053
rfingers 7.12502
rthumb -4.51243 -13.8267
lclavicle -1.50059e-014 5.36719e-015
lhumerus 13.6924 -3.26361 55.505
lradius 92.7428
lwrist -0.65241
lhand -25.7119 28.4373
lfingers 7.12502
lthumb 0.824018 58.4154
rfemur -27.6007 11.7393 10.3636
rtibia 3.63924
rfoot 3.32576 -25.3569
rtoes -0.656232
lfemur -29.3335 5.52815 -23.5288
ltibia 76.4304
lfoot -12.5599 14.7623
ltoes 1.70977
268
root 23.7748 16.707 0.274265 -49.2975 -86.3071 62.6603
lowerback -6.17682 -1.22977 -6.99543
upperback -5.24423 -1.5143 -0.377224
thorax -1.82581 -0.637103 3.4624
lowerneck 2.88392 2.62518 -2.67907
upperneck 0.543959 3.42034 4.34414
head -0.446543 1.67254 1.75794
rclavicle 2.30854e-015 2.54444e-014
rhumerus -13.9475 11.3825 -33.4958
rradius 108.733
rwrist 2.89317
rhand -30.3359 16.0273
rfingers 7.12502
rthumb -3.64187 -13.9213
lclavicle 2.30854e-015 2.54444e-014
lhumerus 12.6478 -3.37534 56.1323
lradius 92.0034
lwrist -0.859119
lhand -25.6367 28.2363
lfingers 7.12502
lthumb 0.896583 58.2141
rfemur -26.6734 11.7063 10.2832
rtibia 3.15195
rfoot 3.64657 -24.8655
rtoes -0.998287
lfemur -27.5319 5.6601 -23.444
ltibia 76.4452
lfoot -12.1444 14.0713
ltoes 1.40058
269
root 23.849 16.6915 0.295138 -56.7678 -86.3639 69.4603
lowerback -5.93016 -1.21553 -7.29386
upperback -5.12618 -1.493 -0.381559
thorax -1.8382 -0.617869 3.62959
lowerneck 2.92973 2.76468 -2.36257
upperneck 1.37276 3.58399 4.1268
head -0.191408 1.7578 1.63463
rclavicle 1.3713e-014 -6.36111e-015
rhumerus -15.0857 12.8556 -35.1192
rradius 107.525
rwrist 2.85687
rhand -29.4533 15.9025
rfingers 7.12502
rthumb -2.78949 -14.059
lclavicle 1.3713e-014 -6.36111e-015
lhumerus 11.1018 -3.87687 56.7793
lradius 91.3729
lwrist -1.12373
lhand -25.3056 27.9977
lfingers 7.12502
lthumb 1.21643 57.974
rfemur -26.3691 11.7487 10.2344
rtibia 3.36783
rfoot 3.7109 -24.4617
rtoes -0.0762914
lfemur -25.9381 5.7651 -23.2993
ltibia 76.2452
lfoot -11.7579 13.4871
ltoes 0.00940384
270
root 23.9295 16.6741 0.32111 -66.4544 -86.594 78.868
lowerback -6.07558 -1.05904 -7.33292
upperback -5.11172 -1.27213 -0.424389
thorax -1.76861 -0.510549 3.61493
lowerneck 2.88038 2.87185 -2.22677
upperneck 2.32862 3.69145 4.30126
head 0.107904 1.81384 1.67422
rclavicle -2.95537e-015 5.96354e-015
rhumerus -16.5946 14.1342 -36.8776
rradius 106.233
rwrist 2.87893
rhand -29.1617 15.7686
rfingers 7.12502
rthumb -2.50787 -14.1965
lclavicle -2.95537e-015 5.96354e-015
lhumerus 9.69322 -4.53089 57.525
lradius 90.5905
lwrist -1.44052
lhand -24.8301 27.8527
lfingers 7.12502
lthumb 1.67565 57.8258
rfemur -26.7513 11.9318 10.1973
rtibia 3.84707
rfoot 3.94046 -24.1657
rtoes 1.51089
lfemur -24.8581 5.94421 -23.0808
ltibia 75.8759
lfoot -11.416 12.8009
ltoes -1.02059
271
root 24.0167 16.6498 0.345191 -75.8564 -86.733 88.0376
lowerback -6.17546 -0.70833 -7.27562
upperback -5.40847 -0.834152 -0.68424
thorax -2.07951 -0.287043 3.33481
lowerneck 3.85753 2.78523 -1.64012
upperneck 3.19933 3.5273 4.57981
head 0.224926 1.72216 1.65642
rclavicle 6.24929e-015 5.96354e-016
rhumerus -19.3472 15.5362 -38.8324
rradius 105.276
rwrist 2.93383
rhand -28.7474 15.2775
rfingers 7.12502
rthumb -2.10779 -14.6919
lclavicle 6.24929e-015 5.96354e-016
lhumerus 8.16582 -6.09753 58.2952
lradius 89.6841
lwrist -1.54648
lhand -24.3124 27.7638
lfingers 7.12502
lthumb 2.1756 57.7325
rfemur -27.0865 12.0473 10.199
rtibia 4.09133
rfoot 4.16748 -23.807
rtoes 1.67148
lfemur -23.802 6.02375 -22.8241
ltibia 75.3274
lfoot -10.9543 11.9553
ltoes -0.388535
272
root 24.1009 16.6268 0.368844 -83.3801 -86.7791 95.2656
lowerback -6.17977 -0.809604 -7.44556
upperback -5.31346 -0.949181 -0.490143
thorax -1.96152 -0.340149 3.62566
lowerneck 3.07347 2.99617 -1.7781
upperneck 4.61462 3.74589 4.66123
head 0.784349 1.84594 1.73562
rclavicle 2.48481e-017 -1.0138e-014
rhumerus -20.2467 17.2018 -40.3764
rradius 104.175
rwrist 2.7439
rhand -27.7967 14.3723
rfingers 7.12502
rthumb -1.18952 -15.6042
lclavicle 2.48481e-017 -1.0138e-014
lhumerus 6.48639 -6.15725 59.1546
lradius 88.626
lwrist -2.00881
lhand -24.0043 27.6081
lfingers 7.12502
lthumb 2.47322 57.5735
rfemur -27.3315 12.0473 10.2558
rtibia 4.43463
rfoot 4.17423 -22.0508
rtoes 7.04415
lfemur -22.5155 5.95614 -22.5565
ltibia 74.5335
lfoot -10.8105 11.0822
ltoes -0.788319
273
root 24.1832 16.6018 0.39378 -92.1816 -86.7156 103.771
lowerback -6.07665 -0.785395 -7.4157
upperback -5.36375 -0.933503 -0.538604
thorax -2.07435 -0.330073 3.56093
lowerneck 2.91938 3.11874 -1.5754
upperneck 5.60324 3.8614 4.69306
head 1.11947 1.91027 1.72911
rclavicle 7.05686e-015 -1.19271e-015
rhumerus -21.7357 18.6184 -42.5432
rradius 102.828
rwrist 2.47283
rhand -26.9218 13.5217
rfingers 7.12502
rthumb -0.344557 -16.4578
lclavicle 7.05686e-015 -1.19271e-015
lhumerus 4.66743 -6.66124 59.838
lradius 87.3718
lwrist -2.56926
lhand -24.0575 27.4394
lfingers 7.12502
lthumb 2.42186 57.4054
rfemur -27.7484 12.1023 10.2401
rtibia 5.0921
rfoot 3.6741 -22.3276
rtoes 4.60168
lfemur -21.1895 5.9042 -22.3893
ltibia 73.5128
lfoot -11.8313 10.3667
ltoes -6.47159
274
root 24.2745 16.5721 0.421814 -99.3264 -86.5816 110.734
lowerback -6.34489 -0.778326 -7.52783
upperback -5.19716 -0.881861 -0.490448
thorax -1.75558 -0.313721 3.67194
lowerneck 2.72416 3.26426 -1.42756
upperneck 6.19906 4.03258 4.60272
head 1.33973 2.00104 1.68931
rclavicle 6.80837e-015 -1.43125e-014
rhumerus -22.8795 19.5176 -44.5862
rradius 101.04
rwrist 2.19909
rhand -26.2979 12.94
rfingers 7.12502
rthumb 0.258031 -17.0396
lclavicle 6.80837e-015 -1.43125e-014
lhumerus 3.23134 -6.90903 60.8072
lradius 85.9281
lwrist -3.08698
lhand -23.9352 27.149
lfingers 7.12502
lthumb 2.53992 57.1137
rfemur -28.3026 12.0611 10.1642
rtibia 5.73433
rfoot 3.1825 -22.6132
rtoes 2.25734
lfemur -20.0703 5.69597 -22.3123
ltibia 72.3154
lfoot -11.72 10.2178
ltoes -7.65965
